<?xml version="1.0" encoding="UTF-8" standalone="no" ?>
<!DOCTYPE svg PUBLIC "-//W3C//DTD SVG 1.1//EN" "http://www.w3.org/Graphics/SVG/1.1/DTD/svg11.dtd">
<svg xmlns="http://www.w3.org/2000/svg" xmlns:xlink="http://www.w3.org/1999/xlink" version="1.1" width="1080" height="1080" viewBox="0 0 1080 1080" xml:space="preserve">
<desc>Created with Fabric.js 5.2.4</desc>
<defs>
</defs>
<g transform="matrix(1 0 0 1 540 540)" id="f925f3f9-e3aa-4adf-8f31-dcff07396d0e"  >
<rect style="stroke: none; stroke-width: 1; stroke-dasharray: none; stroke-linecap: butt; stroke-dashoffset: 0; stroke-linejoin: miter; stroke-miterlimit: 4; fill: rgb(255,255,255); fill-rule: nonzero; opacity: 1; visibility: hidden;" vector-effect="non-scaling-stroke"  x="-540" y="-540" rx="0" ry="0" width="1080" height="1080" />
</g>
<g transform="matrix(1 0 0 1 540 540)" id="9e9b7b92-76bf-415b-a152-5042f49e0d15"  >
</g>
<g transform="matrix(1.31 0 0 1.17 540 540.31)"  >
<g style="" vector-effect="non-scaling-stroke"   >
		<g transform="matrix(0.04 0 0 0.04 -0.4 -29.53)"  >
<path style="stroke: none; stroke-width: 1; stroke-dasharray: none; stroke-linecap: butt; stroke-dashoffset: 0; stroke-linejoin: miter; stroke-miterlimit: 4; fill: rgb(255,153,204); fill-rule: evenodd; opacity: 1;" vector-effect="non-scaling-stroke"  transform=" translate(-5882.54, -5758.68)" d="M 6676.52 8874.01 L 6674.25 8920.92 L 6912.44 8918.89 C 7032.839999999999 8926.23 7195.11 8869.88 7236.17 8725.66 C 7280.86 8568.7 7218.96 8435.38 7149.57 8329.42 C 6968.65 8053.17 6857.65 7983.37 6816.44 7623.6 C 6774.82 7260.3 6792.889999999999 6015.33 6792.889999999999 5567.77 C 6792.889999999999 4876.33 6792.889999999999 4184.88 6792.889999999999 3493.4400000000005 C 6792.889999999999 3184.6100000000006 6852.74 2810.5900000000006 6601.789999999999 2654.3000000000006 C 6370.469999999999 2510.2400000000007 5992.779999999999 2670.4600000000005 5775.929999999999 2753.5700000000006 C 5525.589999999999 2849.5100000000007 5280.169999999999 2941.2500000000005 5029.16 3039.5600000000004 C 4824.07 3119.8700000000003 4407.719999999999 3251.6000000000004 4538.83 3548.6400000000003 C 4587.72 3659.38 4705.86 3740.7000000000003 4793.2 3811.01 C 4891.5599999999995 3890.1800000000003 4992.47 3949.51 5054.95 4065.78 C 5179.679999999999 4297.89 5159.55 4710.85 5159.599999999999 5000.5 C 5159.719999999999 5691.51 5164.0199999999995 6384.01 5159.24 7074.84 C 5157.29 7358.04 5162.219999999999 7762.71 5033.73 7989.18 C 4904.07 8217.710000000001 4675.44 8401.73 4710.07 8692.93 L 4755.03 8690.44 C 4791.179999999999 8636.630000000001 4791.53 8536.33 4843.99 8476.19 C 4986.9 8312.380000000001 5304.36 8343.51 5339.099999999999 8548.28 C 5348.599999999999 8604.310000000001 5327.7 8652.54 5334.139999999999 8695.95 L 5548.099999999999 8706.04 C 5604.849999999999 8580.03 5626.37 8555.470000000001 5692.329999999999 8460.410000000002 L 5779.149999999999 8361.530000000002 C 6014.899999999999 8145.070000000002 6402.899999999999 8139.470000000002 6578.439999999999 8392.630000000003 C 6694.169999999998 8559.510000000002 6659.709999999999 8662.420000000004 6676.519999999999 8874.010000000002 z" stroke-linecap="round" />
</g>
		<g transform="matrix(0.04 0 0 0.04 -23.93 -175.16)"  >
<path style="stroke: none; stroke-width: 1; stroke-dasharray: none; stroke-linecap: butt; stroke-dashoffset: 0; stroke-linejoin: miter; stroke-miterlimit: 4; fill: rgb(176,126,72); fill-rule: evenodd; opacity: 1;" vector-effect="non-scaling-stroke"  transform=" translate(-5260.12, -1905.4)" d="M 5525.47 2234.15 C 5413 2224.04 5280.14 2150.23 5237.43 2088.01 C 5200.070000000001 2033.5800000000002 5221.79 1953.0100000000002 5260.76 1924.7900000000002 C 5314.76 1885.6800000000003 5388.6900000000005 1922.13 5430.99 1942.3300000000002 C 5556.58 1698.4800000000002 5760.07 1889.5700000000002 5624.3099999999995 2102.2400000000002 C 5597.15 2144.7900000000004 5556.45 2203.86 5525.469999999999 2234.15 z M 5114.18 1156.64 C 5121.58 1294.68 5093.280000000001 1593.67 5031.1 1695.0800000000002 C 4946.13 1833.64 4772.35 1747.91 4658.83 1676.19 C 4629.21 1657.48 4634.76 1664.8500000000001 4610.33 1639.24 C 4616.84 1599.2 4663.42 1533.88 4589.89 1465.81 C 4482.81 1366.69 4317.76 1508.73 4406.17 1632.08 C 4441.64 1681.58 4492.38 1691.07 4550.4800000000005 1672.9099999999999 C 4563.030000000001 1668.9899999999998 4562.370000000001 1668.11 4578.330000000001 1663.9399999999998 C 4837.820000000001 2201.18 4264.400000000001 2139.6299999999997 4020.0300000000007 1970.29 C 4059.640000000001 1790 3888.850000000001 1742.81 3805.290000000001 1841.9299999999998 C 3732.560000000001 1928.2099999999998 3825.640000000001 2109.24 3993.000000000001 2006.9399999999998 C 4019.6600000000008 2027.32 4075.9300000000007 2084.16 4102.160000000001 2114.23 L 4634.740000000001 2682.44 C 4658.530000000001 2705.2000000000003 4669.870000000001 2712.05 4691.2300000000005 2735.82 L 4852.540000000001 2910.63 C 4891.590000000001 2899.8 4974.500000000001 2840.32 5016.9800000000005 2815.62 C 5184.02 2718.47 5385.4400000000005 2645.29 5572.110000000001 2583.45 C 5876.990000000001 2482.45 6081.59 2427.3799999999997 6430.910000000001 2402.83 L 6594.040000000001 1158.83 C 6793.820000000001 1152.07 6761.910000000001 950.1899999999999 6656.060000000001 916.5899999999999 C 6529.810000000001 876.4999999999999 6427.520000000001 1033.2199999999998 6534.3600000000015 1129.9299999999998 C 6548.8200000000015 1143.0199999999998 6540.520000000001 1133.11 6552.140000000001 1148.1699999999998 C 6531.380000000001 1236.4699999999998 6368.830000000001 1458.2199999999998 6258.920000000001 1508.87 C 6046.430000000001 1606.79 5941.030000000001 1404.53 5924.490000000001 1224.12 C 6093.630000000001 1187.52 6066.4800000000005 996.9699999999999 5940.370000000001 977.0199999999999 C 5827.870000000001 959.2199999999999 5754.35 1077.33 5816.040000000001 1170.6899999999998 C 5841.930000000001 1209.87 5846.550000000001 1195.0399999999997 5881.060000000001 1224.37 C 5873.350000000001 1287.4799999999998 5748.670000000001 1650.12 5522.970000000001 1489.2599999999998 C 5430.000000000001 1422.9899999999998 5220.050000000001 1201.0799999999997 5188.770000000001 1123.0499999999997 C 5216.050000000001 1090.2499999999998 5263.120000000002 1050.0399999999997 5224.410000000002 966.8099999999997 C 5204.510000000002 924.0199999999998 5144.020000000001 883.8199999999997 5073.690000000001 906.9399999999997 C 5020.840000000001 924.3099999999997 4979.720000000001 973.7099999999997 4991.380000000001 1046.3299999999997 C 5006.780000000001 1142.1999999999998 5074.490000000001 1132.6299999999997 5114.180000000001 1156.6399999999996 z" stroke-linecap="round" />
</g>
		<g transform="matrix(0.04 0 0 0.04 -109.31 -67.47)"  >
<path style="stroke: none; stroke-width: 1; stroke-dasharray: none; stroke-linecap: butt; stroke-dashoffset: 0; stroke-linejoin: miter; stroke-miterlimit: 4; fill: rgb(176,126,72); fill-rule: evenodd; opacity: 1;" vector-effect="non-scaling-stroke"  transform=" translate(-3001.04, -4754.84)" d="M 3246.21 5745.57 C 3248.16 5744.219999999999 3251.46 5740.5 3252.57 5742.42 C 3253.9 5744.7 3260.3300000000004 5738.6900000000005 3265.46 5736.83 C 3298.65 5724.7699999999995 3296.36 5732.69 3322.14 5709.8099999999995 C 3343.35 5690.98 3360.19 5674.719999999999 3357.7599999999998 5635.03 C 3311.8599999999997 5615.46 3309.89 5625.09 3260.66 5622.38 C 3207.02 5531.91 3240.23 5397.4800000000005 3279.04 5311.14 C 3334.09 5188.67 3383.89 5176.070000000001 3535.44 5212.17 C 3639.23 5236.89 3746.36 5261.28 3850.55 5286.96 C 3909.57 5301.51 3892.9300000000003 5309.57 3874.86 5424.33 C 3836.84 5665.87 3748.2400000000002 5992.5 3586.9500000000003 6127.21 C 3421.7700000000004 6265.17 3278.0000000000005 5886.9 3246.21 5745.57 z M 1867.24 3900.9399999999996 C 1864.74 3781.72 1931.72 3610.3299999999995 1983.99 3524.8899999999994 C 2203.67 3165.8299999999995 2472.91 3478.6199999999994 2142.81 3760.2999999999993 L 2038.75 3833.4899999999993 C 1994.88 3858.229999999999 1921.76 3898.0699999999993 1867.24 3900.939999999999 z M 1687.94 3888.6399999999994 C 1612 3878.629999999999 1522.8000000000002 3775.9399999999996 1451.46 3796.609999999999 C 1424.91 3890.6199999999994 1633.69 3952.579999999999 1679.92 3976.709999999999 C 1680.74 3982.289999999999 1672.0700000000002 4324.879999999999 1681.3100000000002 4450.089999999999 C 1692.3200000000002 4599.339999999999 1709.3400000000001 4746.9 1729.2600000000002 4894.69 C 1748.4400000000003 5036.919999999999 1768.3100000000002 5177.45 1796.7900000000002 5317.15 C 1822.0800000000002 5441.2 1852.2400000000002 5646.04 2004.9100000000003 5570.879999999999 C 2030.2000000000003 5392.589999999999 1831.2400000000002 5143.039999999999 2049.88 4369.939999999999 C 2072.5 4289.949999999999 2109.12 4200.509999999998 2152.46 4133.449999999999 C 2172.2400000000002 4102.8499999999985 2175.23 4082.219999999999 2215.57 4079.9199999999987 C 2282.9100000000003 4142.719999999998 2295.2400000000002 4651.719999999998 2310 4776.819999999999 C 2324.32 4898.159999999999 2337.69 5012.669999999999 2354.39 5132.239999999999 C 2361.67 5184.369999999999 2371.02 5247.619999999999 2383.15 5298.8499999999985 C 2401.64 5376.969999999998 2511.62 5405.629999999998 2518.61 5297.309999999999 C 2520.23 5272.119999999999 2521.31 5246.769999999999 2522.9700000000003 5221.519999999999 C 2553.1200000000003 4762.399999999999 2742.2300000000005 4086.9799999999987 2972.1400000000003 3717.1799999999985 C 2999.3900000000003 3673.3499999999985 3060.53 3562.1599999999985 3112.8900000000003 3553.2499999999986 C 3132.61 3612.9299999999985 3067.9800000000005 3965.6999999999985 3056.5000000000005 4064.9599999999987 C 3019.0000000000005 4389.1799999999985 3003.6100000000006 5494.019999999999 3142.4200000000005 5690.3499999999985 C 3182.7300000000005 5747.359999999999 3174.8800000000006 5931.039999999998 3310.5600000000004 6106.409999999999 C 3450.5700000000006 6287.379999999999 3670.8600000000006 6243.999999999999 3793.9500000000003 6080.079999999999 C 3813.8100000000004 6053.629999999999 3832.84 6028.729999999999 3852.94 5994.729999999999 C 4040.9900000000002 5676.619999999999 4037.95 5389.319999999999 4077.67 5330.899999999999 C 4159.01 5318.969999999998 4261.47 5339.479999999999 4360.82 5325.979999999999 C 4426.82 5317.009999999998 4465.38 5305.189999999999 4521.759999999999 5275.359999999999 C 4551.749999999999 5259.499999999999 4553.0199999999995 5264.709999999999 4552.929999999999 5226.519999999999 C 4434.659999999999 5192.719999999998 4409.879999999999 5324.3499999999985 4083.0499999999993 5265.909999999999 C 4077.649999999999 5141.929999999999 4175.679999999999 4505.689999999999 4051.729999999999 4400.039999999999 C 4018.659999999999 4371.859999999999 3933.269999999999 4352.529999999999 3890.739999999999 4440.909999999999 C 3830.999999999999 4565.019999999999 3809.7099999999987 4689.259999999999 3696.259999999999 4839.419999999999 C 3671.659999999999 4871.969999999999 3658.559999999999 4891.259999999999 3617.929999999999 4893.23 C 3556.689999999999 4669.299999999999 3638.6699999999987 4584.58 3618.429999999999 4459.7699999999995 C 3579.8999999999987 4432.98 3515.089999999999 4413.29 3464.239999999999 4446.349999999999 C 3423.449999999999 4472.87 3424.449999999999 4546.15 3421.679999999999 4594.099999999999 C 3415.429999999999 4702.5199999999995 3435.679999999999 4840.91 3489.049999999999 4911.759999999999 C 3597.819999999999 5056.15 3761.4799999999987 4946.369999999999 3844.799999999999 4809.879999999999 C 3862.529999999999 4780.839999999999 3905.9999999999986 4704.959999999999 3924.219999999999 4685.69 C 3927.199999999999 4763.839999999999 3919.569999999999 5173.7 3898.309999999999 5220.639999999999 C 3863.479999999999 5234.299999999999 3596.179999999999 5153.57 3539.069999999999 5142.679999999999 C 3374.2099999999987 5111.219999999999 3268.339999999999 5143.579999999999 3208.8099999999986 5260.209999999999 C 3189.4799999999987 5133.73 3189.1999999999985 4913.739999999999 3191.3799999999987 4780.369999999999 C 3198.0599999999986 4371.659999999999 3210.3699999999985 4239.5999999999985 3247.8999999999987 3840.559999999999 C 3254.8799999999987 3766.399999999999 3261.739999999999 3679.079999999999 3261.7299999999987 3603.499999999999 C 3261.6999999999985 3365.229999999999 3065.9599999999987 3428.889999999999 2989.6099999999988 3514.369999999999 C 2870.949999999999 3647.209999999999 2783.409999999999 3820.429999999999 2712.259999999999 3990.809999999999 C 2652.6299999999987 4133.569999999999 2487.1299999999987 4601.8099999999995 2474.429999999999 4741.329999999999 C 2419.089999999999 4539.819999999999 2460.319999999999 4012.509999999999 2256.349999999999 3977.099999999999 C 2016.389999999999 3935.449999999999 1878.639999999999 4482.379999999999 1873.069999999999 4573.149999999999 C 1851.869999999999 4456.019999999999 1831.799999999999 4096.199999999999 1857.939999999999 3990.9299999999985 C 1962.9799999999989 3961.5399999999986 2002.709999999999 3966.0799999999986 2103.839999999999 3915.6699999999983 C 2295.2899999999986 3820.2399999999984 2558.6299999999987 3533.979999999998 2346.8999999999987 3336.329999999998 C 2290.009999999999 3283.219999999998 2176.799999999999 3273.059999999998 2083.1699999999987 3300.729999999998 C 1994.6199999999988 3326.909999999998 1939.2899999999986 3377.979999999998 1884.1799999999987 3433.4199999999983 C 1745.9299999999987 3572.4899999999984 1720.8699999999988 3833.2599999999984 1687.9399999999987 3888.6399999999985 z" stroke-linecap="round" />
</g>
		<g transform="matrix(0.04 0 0 0.04 0 135.84)"  >
<path style="stroke: none; stroke-width: 1; stroke-dasharray: none; stroke-linecap: butt; stroke-dashoffset: 0; stroke-linejoin: miter; stroke-miterlimit: 4; fill: rgb(176,126,72); fill-rule: evenodd; opacity: 1;" vector-effect="non-scaling-stroke"  transform=" translate(-5893.16, -10134.07)" d="M 9947.3 10952.57 C 9922.59 11100.76 9889.619999999999 11292.26 9847.16 11430.42 C 9823.91 11506.07 9802.76 11570.84 9772.75 11643.75 C 9719.49 11773.14 9545.38 12152.54 9374.38 12082.63 C 9307.33 12055.22 9261.769999999999 11999.509999999998 9223.429999999998 11945.17 C 9152.079999999998 11844.07 9160.13 11833.65 9116.069999999998 11755.94 C 8993.639999999998 11540.02 8964.919999999998 11026.69 9124.719999999998 10817.32 C 9235.439999999997 10672.26 9342.769999999997 10720.84 9554.279999999997 10776.56 L 9902.889999999998 10859.93 C 9967.499999999998 10873 9957.149999999998 10893.550000000001 9947.299999999997 10952.57 z M 3413.5599999999995 9287.939999999999 C 3270.1499999999996 9322.64 3328.2499999999995 9547.009999999998 3486.4299999999994 9481.089999999998 C 3636.4099999999994 9418.589999999998 3592.2999999999993 9244.699999999999 3413.5599999999995 9287.939999999999 z M 1717.3899999999994 10393.769999999999 C 1717.3899999999994 10279.739999999998 1729.9499999999994 10295.819999999998 1977.7699999999995 10267.479999999998 C 2172.3099999999995 10245.229999999998 2406.6499999999996 10310.389999999998 2575.0699999999997 10397.789999999997 C 2643.85 10433.479999999998 2753.9399999999996 10504.929999999997 2797.97 10547.549999999997 C 2884.2999999999997 10631.119999999997 2638.95 10972.769999999997 2595.47 11028.149999999998 C 2394.21 11284.499999999998 1975.6399999999999 11536.759999999998 1662.56 11556.849999999999 C 906.05 11605.409999999998 919.3399999999999 10822.659999999998 1389.6299999999999 10465.769999999999 C 1420.3799999999999 10442.439999999999 1464.29 10398.13 1511.1799999999998 10403.449999999999 C 1601.7299999999998 10579.46 1577.1999999999998 11208.119999999999 1699.04 11232.999999999998 C 1865.47 11266.989999999998 1793.56 11067.119999999999 1772.52 10854.569999999998 C 1755.7 10684.679999999998 1717.3899999999999 10574.079999999998 1717.3899999999999 10393.769999999999 z M 1729.4499999999994 10201.989999999998 C 1719.3999999999994 10149.899999999998 1734.8099999999993 10004.189999999999 1740.8499999999995 9944.809999999998 C 1745.4599999999994 9899.529999999997 1763.0799999999995 9881.479999999998 1800.5699999999995 9861.089999999998 C 1982.8099999999995 9761.999999999998 2169.2399999999993 9737.659999999998 2381.0499999999993 9787.619999999999 C 2549.3899999999994 9827.32 2649.379999999999 9893.919999999998 2735.6599999999994 9991.57 C 2809.5199999999995 10075.17 2889.129999999999 10263.13 2853.4099999999994 10419.41 C 2829.5899999999992 10429.61 2785.1199999999994 10391.86 2741.2599999999993 10367.16 C 2710.6799999999994 10349.93 2666.0099999999993 10328.19 2627.8399999999992 10311.369999999999 C 2415.8499999999995 10217.99 2104.149999999999 10161.179999999998 1878.7399999999993 10192.019999999999 C 1830.2899999999993 10198.649999999998 1776.8299999999992 10213.339999999998 1729.4499999999994 10201.989999999998 z M 1789.0599999999993 9671.979999999998 C 1813.2399999999993 9391.839999999998 1964.7799999999993 8972.529999999997 2072.4299999999994 8743.979999999998 C 2149.4699999999993 8580.429999999998 2255.1399999999994 8426.129999999997 2399.6899999999996 8317.999999999998 C 2428.3599999999997 8296.549999999997 2464.8199999999997 8267.659999999998 2511.4999999999995 8293.359999999999 C 2560.2899999999995 8320.23 2606.3599999999997 8411.749999999998 2606.2999999999997 8497.239999999998 C 2606.12 8795.049999999997 2431.2699999999995 9017.119999999997 2301.16 9184.389999999998 C 2179.47 9340.809999999998 2181.92 9316.349999999997 2062.8199999999997 9445.769999999997 L 1866.4299999999998 9621.919999999996 C 1841.7899999999997 9641.289999999997 1822.84 9660.839999999997 1789.06 9671.979999999996 z M 1395.3999999999992 9945.159999999998 C 1462.019999999999 10012.839999999998 1476.8799999999992 10175.859999999999 1479.9499999999991 10277.519999999999 C 1448.1799999999992 10290.829999999998 1424.3599999999992 10313.039999999999 1384.0699999999993 10333.14 C 1261.3399999999992 10394.359999999999 1212.8799999999992 10435.699999999999 1119.0199999999993 10534.109999999999 C 1027.0899999999992 10630.48 946.2599999999993 10778.39 914.9199999999993 10946.9 C 875.7299999999993 11157.55 887.2899999999993 11299.15 998.4299999999993 11440.779999999999 C 1074.3899999999992 11537.589999999998 1233.2799999999993 11619.939999999999 1404.3999999999992 11652.14 C 1762.9699999999991 11719.609999999999 2240.0499999999993 11564.019999999999 2483.0699999999993 11381.46 L 2649.269999999999 11243.32 C 2855.789999999999 11047.99 2938.909999999999 10853.84 2985.469999999999 10800.88 C 3040.999999999999 10849.119999999999 3045.1499999999987 11046.609999999999 3177.869999999999 10951.57 C 3186.429999999999 10891.73 3136.029999999999 10774.66 3108.959999999999 10727.55 C 3019.829999999999 10572.4 3050.9699999999993 10678.869999999999 3071.649999999999 10495.46 C 3092.849999999999 10307.41 3063.729999999999 10140.38 2974.0299999999993 10007.259999999998 C 2904.769999999999 9904.489999999998 2783.5299999999993 9809.219999999998 2635.8499999999995 9744.389999999998 C 2475.8999999999996 9674.179999999998 2297.379999999999 9664.689999999997 2105.3699999999994 9662.779999999997 C 2112.0599999999995 9643.649999999998 2158.109999999999 9603.099999999997 2179.4499999999994 9587.659999999996 C 2205.0599999999995 9569.129999999996 2238.7399999999993 9540.109999999997 2261.0599999999995 9516.979999999996 C 2311.0299999999993 9465.189999999995 2366.5099999999993 9428.179999999997 2418.9699999999993 9370.129999999996 C 2599.4299999999994 9170.459999999995 2820.8699999999994 8866.089999999995 2833.629999999999 8565.319999999996 C 2842.399999999999 8358.429999999997 2767.519999999999 8235.939999999997 2603.2799999999993 8185.329999999996 C 2519.8099999999995 8159.609999999996 2424.7999999999993 8167.3399999999965 2343.0999999999995 8193.029999999997 C 2214.5599999999995 8233.449999999997 2089.4299999999994 8371.709999999997 2020.8599999999994 8480.719999999998 C 1982.1899999999994 8542.209999999997 1944.3499999999995 8608.759999999998 1910.5199999999995 8675.459999999997 C 1720.5199999999995 9049.919999999996 1657.2399999999996 9525.139999999998 1616.1299999999997 9608.549999999997 C 1593.9899999999996 9302.019999999997 1562.0399999999997 8981.579999999998 1590.4699999999996 8671.119999999997 C 1603.7499999999995 8526.099999999997 1634.1599999999996 8384.449999999997 1646.1199999999997 8243.149999999998 C 1652.9399999999996 8162.629999999997 1662.1799999999996 8101.169999999998 1571.3099999999997 8089.669999999998 C 1493.5699999999997 8079.839999999998 1450.3599999999997 8135.879999999998 1430.5099999999998 8195.169999999998 C 1365.6899999999998 8388.759999999998 1337.9599999999998 8848.809999999998 1339.5199999999998 9072.969999999998 C 1341.3899999999996 9340.559999999998 1378.0699999999997 9585.729999999998 1418.4599999999998 9844.699999999997 C 1426.3999999999999 9895.599999999997 1407.5499999999997 9911.759999999997 1395.3999999999999 9945.159999999996 z M 7399.15 9857.859999999999 C 7396.589999999999 9926.689999999999 7244.9 10221.529999999999 7209.58 10291.4 C 7157.63 10394.13 7023.09 10648.16 6918.91 10465.17 C 6868.4 10376.44 6898.82 10314.17 6918.01 10212.460000000001 C 6941.5 10087.910000000002 6932.6 10080.19 6998.1 9986.87 C 7029.58 9942.01 7103.280000000001 9868.060000000001 7160.04 9843.92 C 7258.44 9802.08 7322.98 9811.37 7399.15 9857.86 z M 6234.139999999999 9166.05 C 6205.709999999999 9265.15 6063.969999999999 9434.59 5983.44 9505.42 C 5951.429999999999 9533.57 5910.15 9555.62 5862.75 9579.92 C 5772.12 9626.37 5777.83 9586.26 5780.17 9504.7 C 5785.1 9333.480000000001 5801.25 9152.810000000001 5848.87 8989.78 C 5981.83 9019.19 6177.1 9084.49 6234.139999999999 9166.050000000001 z M 7670.889999999999 9672.14 C 7647.549999999999 9394.31 7697.639999999999 8885.42 7896.039999999999 8666.15 C 8027.459999999999 8520.92 8176.449999999999 9031.02 7841.179999999999 9500.73 C 7810.869999999999 9543.199999999999 7707.82 9666.85 7670.889999999999 9672.14 z M 5136 11067.77 C 5052.8 11014.26 5007.02 10606.65 4999.77 10469.970000000001 C 4974.2300000000005 9988.7 5004.26 9582.93 5088.400000000001 9110.68 C 5128.950000000001 8883.08 5108.710000000001 8915.76 5263.000000000001 8918.29 C 5383.800000000001 8920.27 5489.7300000000005 8935.92 5604.160000000001 8943.84 C 5595.740000000001 8988.52 5577.340000000001 9034.4 5566.660000000001 9080.210000000001 C 5489.4400000000005 9411.42 5491.9800000000005 9832.69 5552.02 10155.810000000001 C 5571.21 10259.11 5224.280000000001 11044.420000000002 5136 11067.77 z M 5881.83 8895.17 C 5893.64 8809.74 6055.37 8443.78 6202.28 8462.18 C 6289.599999999999 8473.130000000001 6303.96 8629.92 6315.23 8724.630000000001 C 6331.139999999999 8858.34 6298.719999999999 8931.220000000001 6279.259999999999 9050.400000000001 C 6217.539999999999 9024.260000000002 6159.9 8988.390000000001 6087.589999999999 8959.600000000002 C 6029.15 8936.320000000002 5927.989999999999 8917.560000000001 5881.829999999999 8895.170000000002 z M 5635.53 8852.85 C 5567.28 8854.62 5473.259999999999 8839.62 5398.469999999999 8836.470000000001 C 5330.379999999999 8833.6 5200.639999999999 8843.230000000001 5158.089999999999 8813.810000000001 C 5145.779999999999 8715.410000000002 5306.039999999999 8503.180000000002 5084.999999999999 8511.62 C 5003.5199999999995 8514.730000000001 4958.679999999999 8534.310000000001 4934.299999999999 8600.710000000001 C 4826.61 8894.050000000001 4992.759999999999 8800.380000000001 4461.499999999999 8848.990000000002 C 4392.529999999999 8855.300000000001 4316.449999999999 8865.190000000002 4247.149999999999 8866.95 C 4102.829999999999 8870.630000000001 4172.3899999999985 8805.08 4086.1299999999987 8783.570000000002 C 4053.929999999999 8793.730000000001 4043.4799999999987 8805.460000000001 4029.4199999999987 8827.440000000002 C 4035.339999999999 8965.920000000002 4248.0999999999985 8953.580000000002 4382.709999999999 8950.660000000002 C 4537.709999999999 8947.29 4683.649999999999 8924.560000000001 4842.549999999999 8926.54 C 4838.489999999999 9038.18 4795.469999999999 9198.79 4776.579999999999 9316.470000000001 C 4754.299999999999 9455.220000000001 4750.809999999999 9592.480000000001 4734.449999999999 9733.37 C 4656.189999999999 9797.820000000002 4562.779999999999 9766.300000000001 4487.609999999999 9713.050000000001 C 4321.669999999999 9595.480000000001 4251.4299999999985 9688.410000000002 4220.949999999999 9657.170000000002 C 4186.299999999999 9595.340000000002 4259.159999999999 9520.840000000002 4164.6399999999985 9494.560000000001 C 4108.869999999998 9479.04 4023.2799999999984 9479.410000000002 4006.9799999999987 9559.86 C 3981.4299999999985 9685.960000000001 3980.9499999999985 9880.900000000001 3982.839999999999 10012.94 C 3984.0399999999986 10097.17 3936.319999999999 10152.720000000001 3883.089999999999 10232.58 C 3879.7899999999986 10237.53 3872.4599999999987 10247.18 3868.659999999999 10252.49 C 3808.689999999999 10336.31 3796.1099999999988 10368.52 3709.1499999999987 10448.539999999999 C 3685.5799999999986 10470.24 3673.9199999999987 10478.269999999999 3646.3699999999985 10504.369999999999 C 3487.1099999999988 10655.24 3461.1299999999983 10230.919999999998 3468.6599999999985 10139.519999999999 C 3476.4399999999987 10044.979999999998 3534.6599999999985 9779.899999999998 3516.6799999999985 9719.069999999998 C 3445.8699999999985 9677.809999999998 3344.4899999999984 9670.559999999998 3299.0099999999984 9733.709999999997 C 3266.9199999999983 9778.269999999997 3251.3399999999983 9905.379999999997 3248.2199999999984 9970.089999999997 C 3239.6699999999983 10147.539999999997 3276.0199999999986 10318.509999999997 3346.8699999999985 10455.769999999997 C 3370.6199999999985 10501.779999999997 3443.6799999999985 10589.729999999996 3483.5999999999985 10606.879999999997 C 3558.8199999999983 10639.179999999997 3655.7799999999984 10607.279999999997 3714.8299999999986 10572.689999999997 C 3850.4699999999984 10493.239999999996 3942.0599999999986 10316.879999999997 3989.7199999999984 10267.939999999997 C 3999.4799999999987 10410.259999999997 4019.8499999999985 10526.629999999997 4048.209999999998 10660.009999999997 C 4063.039999999998 10729.729999999996 4078.039999999998 10780.899999999996 4165.829999999998 10760.569999999996 C 4240.629999999998 10743.249999999996 4219.0999999999985 10665.959999999995 4219.0999999999985 10588.499999999996 C 4219.0999999999985 10512.749999999996 4221.739999999999 9834.699999999997 4327.329999999998 9776.049999999996 C 4356.589999999998 9760.619999999995 4454.149999999998 9816.929999999995 4504.479999999998 9831.769999999995 C 4590.9699999999975 9857.269999999995 4637.269999999998 9864.389999999996 4731.249999999998 9847.119999999995 C 4720.299999999998 10218.359999999995 4744.649999999998 10779.469999999996 4963.959999999998 11082.239999999994 C 5012.209999999998 11148.849999999995 5113.6799999999985 11204.459999999994 5212.869999999998 11147.709999999994 C 5357.809999999998 11064.769999999993 5541.949999999998 10566.719999999994 5607.719999999998 10444.959999999994 C 5640.809999999999 10574.409999999994 5656.419999999998 10698.709999999994 5692.219999999998 10828.079999999994 C 5712.659999999998 10901.949999999995 5714.159999999998 10945.259999999995 5796.619999999998 10949.399999999994 C 5889.509999999998 10954.069999999994 5892.379999999998 10909.829999999994 5906.029999999998 10827.049999999994 C 5930.849999999998 10676.619999999994 6025.109999999998 10157.329999999994 6130.949999999998 10126.069999999994 C 6151.299999999998 10159.209999999994 6162.529999999998 10232.189999999995 6176.429999999998 10276.469999999994 C 6219.819999999998 10414.679999999993 6281.959999999997 10577.159999999994 6371.949999999998 10681.739999999994 C 6422.849999999998 10740.889999999994 6504.169999999998 10825.509999999995 6638.069999999998 10802.309999999994 C 6754.269999999998 10782.179999999995 6785.609999999998 10685.539999999994 6818.029999999998 10579.349999999995 C 6908.779999999998 10605.299999999996 6963.289999999998 10637.079999999994 7073.2599999999975 10603.869999999995 C 7276.4699999999975 10542.509999999995 7350.069999999998 10274.239999999996 7449.809999999998 10090.939999999995 L 7557.089999999997 10521.109999999995 C 7617.499999999997 10710.929999999995 7769.559999999998 11182.529999999995 8070.519999999998 11033.579999999994 C 8180.439999999998 10979.179999999995 8237.229999999998 10730.109999999995 8230.669999999998 10651.899999999994 C 8200.509999999998 10629.209999999994 8152.799999999998 10623.779999999993 8120.419999999998 10643.239999999994 C 8086.469999999998 10663.659999999994 8082.919999999998 10694.599999999995 8074.069999999998 10740.279999999995 C 8068.0099999999975 10771.519999999995 8049.519999999998 10813.649999999996 8038.4699999999975 10849.269999999995 C 8026.389999999998 10888.229999999994 8009.489999999998 10926.559999999996 7980.799999999997 10940.349999999995 C 7881.289999999997 10884.779999999995 7784.239999999997 10559.039999999995 7761.139999999998 10452.809999999994 C 7725.179999999998 10287.439999999993 7678.2599999999975 9997.509999999995 7678.789999999997 9827.559999999994 L 7816.5099999999975 9728.339999999995 C 8048.309999999998 9543.099999999995 8214.699999999997 9236.439999999995 8247.779999999997 8943.509999999995 C 8263.729999999998 8802.299999999996 8222.289999999997 8638.849999999995 8137.819999999997 8568.989999999994 C 8043.859999999997 8491.289999999994 7845.709999999997 8510.499999999995 7761.169999999997 8582.289999999994 C 7557.109999999997 8755.599999999993 7496.059999999998 8965.169999999993 7446.119999999997 9241.529999999993 C 7433.289999999997 9312.539999999994 7423.589999999997 9387.549999999994 7420.659999999997 9462.369999999994 C 7417.519999999997 9542.559999999994 7432.899999999997 9627.199999999993 7417.029999999997 9702.889999999994 C 7289.229999999997 9718.679999999995 7239.489999999997 9655.609999999993 7006.889999999997 9758.759999999995 C 6781.019999999997 9858.929999999995 6621.009999999997 10143.249999999995 6680.399999999997 10381.959999999995 C 6705.319999999997 10482.129999999996 6738.3799999999965 10454.719999999996 6692.109999999997 10561.239999999996 C 6660.779999999997 10633.389999999996 6636.479999999997 10716.559999999996 6592.269999999997 10703.649999999996 C 6464.659999999997 10610.819999999996 6401.539999999997 10191.459999999995 6298.819999999997 10043.859999999997 C 6267.5499999999965 9998.939999999997 6222.439999999997 9960.119999999997 6143.619999999997 9959.309999999998 C 6018.959999999997 9958.029999999997 5939.559999999997 10089.489999999998 5893.349999999997 10186.049999999997 C 5856.289999999996 10263.479999999998 5849.749999999996 10311.569999999998 5835.539999999996 10339.759999999997 C 5834.319999999996 10342.199999999997 5830.0499999999965 10349.569999999996 5828.769999999996 10351.609999999997 C 5827.719999999996 10353.289999999997 5825.479999999996 10355.809999999998 5824.569999999996 10357.149999999998 C 5823.6299999999965 10358.539999999997 5821.649999999996 10360.949999999997 5820.1299999999965 10362.789999999997 C 5805.329999999996 10264.059999999998 5764.519999999997 9778.909999999998 5789.979999999997 9709.389999999998 C 5904.189999999997 9682.569999999998 5946.619999999997 9728.669999999998 6124.949999999997 9604.859999999997 C 6392.799999999997 9418.919999999996 6556.879999999997 9064.459999999997 6529.349999999997 8697.569999999996 C 6518.939999999997 8558.909999999996 6471.809999999997 8445.069999999996 6389.5499999999965 8395.319999999996 C 6174.3399999999965 8265.159999999996 5941.3399999999965 8354.999999999996 5791.529999999997 8559.609999999997 C 5691.589999999997 8696.109999999997 5676.679999999997 8788.569999999996 5635.529999999997 8852.849999999997 z M 9134.689999999999 10664.86 C 9122.699999999999 10675.380000000001 9152.71 10671.640000000001 9116.269999999999 10677.5 C 9127.159999999998 10641.96 9118.019999999999 10664.69 9134.109999999999 10655.21 C 9310.72 10408.029999999999 9257.069999999998 10424.619999999999 9348.05 10261.73 C 9381.89 10334.65 9420.75 10390.07 9505 10410 C 9595.96 10431.53 9679.7 10396.14 9735.68 10353.59 C 9875.19 10247.54 9967.77 10034.19 9995.710000000001 10002.8 C 9998.060000000001 10048.56 9992.990000000002 10703.05 9961.240000000002 10757.949999999999 C 9960.500000000002 10759.23 9957.550000000001 10764.38 9956.970000000001 10763.05 C 9956.380000000001 10761.72 9954.070000000002 10766.47 9952.390000000001 10767.949999999999 C 9921.130000000001 10780.48 9803.380000000001 10734.669999999998 9758.560000000001 10724.009999999998 C 9686.77 10706.949999999999 9624.750000000002 10695.099999999999 9552.78 10675.8 C 9407.400000000001 10636.82 9273.92 10608.269999999999 9134.69 10664.859999999999 z M 8372.519999999999 10449.69 C 8224.579999999998 10329.93 8495.97 9707 8648.739999999998 9818.57 C 8722.059999999998 9872.119999999999 8711.729999999998 9907.72 8681.109999999999 9993.38 C 8657.759999999998 10058.73 8633.669999999998 10113.099999999999 8606.759999999998 10173.009999999998 C 8570.509999999998 10253.71 8447.999999999998 10440.529999999999 8372.519999999999 10449.689999999999 z M 9572.529999999999 10302 C 9455.669999999998 10160.88 9620.449999999999 9732.54 9555.3 9674.51 C 9539.8 9660.7 9470.759999999998 9644.7 9444.65 9643.300000000001 C 9335.949999999999 9637.470000000001 9311.96 9684.210000000001 9295.44 9778.420000000002 C 9275.84 9890.120000000003 9281.44 9938.360000000002 9290.44 10051.120000000003 C 9292.66 10079.030000000002 9268.87 10121.660000000003 9259.43 10157.150000000003 C 9225.26 10285.560000000003 9156.03 10449.220000000003 9079.630000000001 10552.890000000003 C 9035.380000000001 10612.920000000004 8985.03 10690.760000000004 8948.320000000002 10560.940000000002 C 8936.470000000001 10519.000000000002 8931.510000000002 10489.260000000002 8926.350000000002 10445.340000000002 C 8915.640000000003 10354.180000000002 8924.000000000002 10282.920000000002 8931.910000000002 10192.450000000003 L 8979.360000000002 9704.410000000002 C 8935.120000000003 9666.270000000002 8921.370000000003 9655.010000000002 8844.000000000002 9664.490000000002 C 8772.840000000002 9673.2 8791.020000000002 9721.710000000001 8724.040000000003 9701.350000000002 C 8130.920000000003 9521.120000000003 7925.310000000003 10542.850000000002 8353.270000000002 10548.300000000003 C 8571.480000000001 10551.090000000004 8667.370000000003 10276.670000000004 8714.500000000002 10235.200000000003 C 8743.910000000002 10368.280000000002 8778.130000000001 10666.950000000003 8927.500000000002 10725.850000000002 C 8978.060000000001 10745.790000000003 9006.570000000002 10736.600000000002 9052.080000000002 10726.330000000002 C 8976.210000000001 10802.420000000002 8923.960000000001 10958.830000000002 8906.410000000002 11106.090000000002 C 8873.600000000002 11381.330000000002 8936.380000000001 11731.820000000002 9085.200000000003 11956.230000000001 C 9157.660000000002 12065.480000000001 9217.130000000003 12144.520000000002 9386.030000000002 12172.94 C 9557.120000000003 12201.74 9655.700000000003 12133.630000000001 9757.810000000003 12035.220000000001 C 9995.550000000003 11806.080000000002 10093.590000000004 11445.18 10162.680000000004 11127.52 L 10207.380000000005 10918.970000000001 C 10299.390000000005 10908.060000000001 10400.290000000005 10936.19 10591.660000000005 10913.36 C 10744.990000000005 10895.060000000001 10781.880000000005 10869.24 10891.860000000006 10809.16 L 10885.770000000006 10772.08 C 10792.730000000005 10742.9 10803.800000000007 10763.92 10734.180000000006 10793.14 C 10586.680000000006 10855.029999999999 10307.260000000006 10866.859999999999 10220.710000000006 10821.609999999999 C 10210.070000000007 10749.419999999998 10350.330000000007 9721.619999999999 10174.490000000007 9596.72 C 10138.550000000007 9571.199999999999 10079.750000000007 9565.949999999999 10030.910000000007 9574.9 C 9985.870000000006 9583.15 9968.420000000007 9614.77 9948.270000000008 9660.619999999999 C 9859.800000000008 9861.9 9879.940000000008 9898.449999999999 9739.310000000009 10128.97 C 9672.700000000008 10238.15 9685.76000000001 10207.74 9626.660000000009 10270.31 C 9603.660000000009 10294.65 9610.320000000009 10298.76 9572.53000000001 10302 z" stroke-linecap="round" />
</g>
		<g transform="matrix(0.04 0 0 0.04 88.56 10.71)"  >
<path style="stroke: none; stroke-width: 1; stroke-dasharray: none; stroke-linecap: butt; stroke-dashoffset: 0; stroke-linejoin: miter; stroke-miterlimit: 4; fill: rgb(176,126,72); fill-rule: evenodd; opacity: 1;" vector-effect="non-scaling-stroke"  transform=" translate(-8236.18, -6823.37)" d="M 7422 7394.85 C 7475.31 7427.25 7525.58 7581.29 7530.11 7659.93 C 7540.549999999999 7841.2300000000005 7391.63 8002.14 7300.45 7797.450000000001 C 7280.03 7751.6 7270.4 7690.070000000001 7273.5599999999995 7633.360000000001 C 7279.61 7524.780000000001 7345.86 7413.450000000001 7421.999999999999 7394.85 z M 8102.29 6022.01 C 8108.98 6065.14 8042 6411.92 8034.31 6499.08 C 8026.47 6587.97 8018.950000000001 6671.37 8016.580000000001 6761.57 C 8015.360000000001 6807.99 8030.890000000001 7038.549999999999 8005.550000000001 7057.08 C 7936.540000000001 7107.53 7575.540000000001 7256.14 7549.000000000001 7244.78 C 7528.900000000001 7236.19 7446.780000000001 7095.429999999999 7422.170000000001 7058.3 C 7420.790000000001 7056.22 7416.680000000001 7050.320000000001 7415.230000000001 7048.26 C 7378.350000000001 6995.6900000000005 7282.840000000001 6864.1 7303.380000000001 6770.93 C 7318.130000000001 6704.06 7441.170000000001 6583.59 7506.060000000001 6677.41 C 7552.920000000001 6745.17 7520.910000000002 6815.65 7641.8200000000015 6810.28 C 7682.330000000002 6808.48 7678.540000000002 6800.599999999999 7700.750000000002 6778.5 C 7712.310000000002 6633.06 7608.420000000002 6559.88 7472.980000000001 6551.19 C 7354.500000000002 6543.589999999999 7198.690000000001 6598.0599999999995 7140.060000000001 6682.94 C 6995.180000000001 6892.71 7354.640000000001 7207.83 7373.690000000001 7311.9 C 7348.410000000002 7341.74 7186.750000000002 7396.089999999999 7152.430000000001 7625.48 C 7104.220000000001 7947.7 7421.3200000000015 8036.69 7573.080000000001 7911.48 L 7638.9800000000005 7842.19 C 7705.92 7738.74 7700.870000000001 7628.49 7672.200000000001 7510.42 C 7646.240000000001 7403.4800000000005 7601.2300000000005 7360.76 7599.710000000001 7309.89 C 7655.260000000001 7283.09 7750.350000000001 7254.72 7815.230000000001 7231.09 C 7890.170000000001 7203.79 7953.560000000001 7167.88 8021.630000000001 7142.39 C 8032.490000000001 7313.14 8111.860000000001 7750.51 8272.76 7832.990000000001 C 8375.87 7885.85 8449.69 7801.330000000001 8486.300000000001 7749.64 C 8601.660000000002 7586.77 8847.320000000002 7016.2300000000005 8833.550000000001 6831.21 C 8726.93 6774.54 8734.660000000002 6881.06 8696.140000000001 7019.69 C 8638.04 7228.849999999999 8581.060000000001 7352.44 8490.2 7541.549999999999 C 8466.04 7591.839999999999 8390.29 7748.749999999999 8344.87 7766.07 C 8289.130000000001 7728.719999999999 8248.460000000001 7470.13 8242.09 7380.099999999999 C 8230.94 7222.469999999999 8218.130000000001 7056.169999999999 8226.27 6897.039999999999 C 8236.470000000001 6697.539999999999 8280.35 6169.839999999999 8342.16 6015.189999999999 C 8476.82 5988.659999999999 9018.77 6065.419999999998 9175.88 6159.299999999998 C 9213.619999999999 6181.8499999999985 9231.689999999999 6201.969999999998 9256.97 6238.789999999998 C 9353.13 6378.8499999999985 9460.359999999999 6218.359999999998 9223.619999999999 6094.519999999998 C 8892.249999999998 5921.169999999997 8488.71 5966.999999999997 8365.829999999998 5936.449999999998 C 8354.219999999998 5863.619999999998 8437.429999999998 5738.909999999998 8375.319999999998 5698.059999999998 C 8351.759999999998 5682.569999999998 8217.389999999998 5644.209999999997 8173.489999999998 5777.399999999998 C 8119.979999999998 5939.7199999999975 8163.119999999998 5937.419999999998 8040.009999999998 5942.329999999998 L 7624.269999999999 5971.839999999998 C 7538.479999999999 5974.669999999998 7562.059999999999 5963.059999999999 7524.019999999999 5922.439999999999 C 7461.279999999999 5855.4299999999985 7381.219999999998 5996.759999999998 7534.969999999998 6029.569999999999 C 7723.269999999999 6069.749999999999 7998.479999999999 6003.409999999999 8102.289999999998 6022.009999999998 z" stroke-linecap="round" />
</g>
		<g transform="matrix(0.04 0 0 0.04 -110.53 22.54)"  >
<path style="stroke: none; stroke-width: 1; stroke-dasharray: none; stroke-linecap: butt; stroke-dashoffset: 0; stroke-linejoin: miter; stroke-miterlimit: 4; fill: rgb(255,153,204); fill-rule: evenodd; opacity: 1;" vector-effect="non-scaling-stroke"  transform=" translate(-2968.6, -7136.37)" d="M 2940.81 7059.3 C 2887.83 6936.87 2771.7599999999998 6779.8 2671.7 6728.05 C 2479.9399999999996 6628.860000000001 2368.2599999999998 6813.34 2444.62 6997.29 C 2529.16 7200.92 2669.7 7377.75 2812.47 7527 C 2863.83 7580.69 2897.27 7650.82 3013.2299999999996 7585.07 L 3074.3799999999997 7545.21 C 3168.6899999999996 7478.51 3262.8399999999997 7395.62 3334.45 7305.44 C 3401.77 7220.669999999999 3516.33 7040.86 3516.83 6888.5599999999995 C 3517.44 6702.15 3353.86 6592.709999999999 3195 6708.749999999999 C 3139.7 6749.139999999999 3097.4 6803.919999999999 3055.96 6866.009999999999 C 3035.93 6896.03 3017.03 6929.579999999999 3000.51 6962.629999999999 L 2965.53 7037.499999999999 C 2949.78 7059.629999999999 2961.23 7047.079999999999 2940.8100000000004 7059.299999999999 z" stroke-linecap="round" />
</g>
		<g transform="matrix(0.04 0 0 0.04 77.04 -96.95)"  >
<path style="stroke: none; stroke-width: 1; stroke-dasharray: none; stroke-linecap: butt; stroke-dashoffset: 0; stroke-linejoin: miter; stroke-miterlimit: 4; fill: rgb(176,126,72); fill-rule: evenodd; opacity: 1;" vector-effect="non-scaling-stroke"  transform=" translate(-7931.41, -3974.72)" d="M 8099.33 4433.65 C 8050.22 4402.91 8002.46 4189.299999999999 7847.21 4084.2899999999995 C 7643.39 3946.4299999999994 7321.31 4153.2699999999995 7708.5 4680.049999999999 C 7755.94 4744.599999999999 8024.91 5023.82 8141.41 4984.459999999999 C 8198.75 4965.089999999999 8321.47 4805.119999999999 8366.34 4750.959999999999 C 8453.460000000001 4645.789999999999 8531.64 4525.999999999999 8596.65 4380.249999999999 C 8711.6 4122.549999999999 8443.15 3870.159999999999 8156.0599999999995 4337.619999999999 C 8136.74 4369.079999999999 8121.789999999999 4404.449999999999 8099.33 4433.649999999999 z M 7599.8 3211.2499999999995 C 7561.2300000000005 3169.7899999999995 7544.570000000001 3070.74 7441.63 2991.2599999999993 C 7347.81 2918.8399999999992 7239.72 2985.4099999999994 7238.95 3104.3099999999995 C 7237.73 3294.1499999999996 7443.22 3480.0599999999995 7560.17 3549.7499999999995 C 7622.41 3586.8399999999997 7654.51 3550.4699999999993 7688.62 3514.7399999999993 C 7775.349999999999 3423.8699999999994 7868.63 3297.3299999999995 7921.82 3173.2899999999995 C 7965.49 3071.4399999999996 7908.15 2939.7299999999996 7779.009999999999 3003.4799999999996 C 7743.78 3020.8699999999994 7702.009999999999 3063.1799999999994 7676.599999999999 3096.0599999999995 C 7658.749999999999 3119.1599999999994 7620.349999999999 3194.7999999999993 7599.799999999999 3211.2499999999995 z" stroke-linecap="round" />
</g>
		<g transform="matrix(0.04 0 0 0.04 128.56 73.4)"  >
<path style="stroke: none; stroke-width: 1; stroke-dasharray: none; stroke-linecap: butt; stroke-dashoffset: 0; stroke-linejoin: miter; stroke-miterlimit: 4; fill: rgb(255,153,204); fill-rule: evenodd; opacity: 1;" vector-effect="non-scaling-stroke"  transform=" translate(-9294.74, -8481.96)" d="M 9311.49 8418.05 C 9255.36 8345.98 9228.73 8216.109999999999 9108.94 8131.219999999999 C 8980.18 8039.969999999999 8847.77 8125.139999999999 8846.62 8277.09 C 8844.93 8498.69 9083.43 8747.06 9261.230000000001 8850.83 C 9364.340000000002 8911 9407.160000000002 8816.22 9449.650000000001 8772.19 C 9556.590000000002 8661.380000000001 9659.62 8520.42 9723.250000000002 8368.58 C 9784.220000000001 8223.06 9697.820000000002 8065.14 9536.920000000002 8148.37 C 9416.770000000002 8210.52 9334.340000000002 8396.32 9311.490000000002 8418.05 z" stroke-linecap="round" />
</g>
		<g transform="matrix(0.04 0 0 0.04 108.91 -116.77)"  >
<path style="stroke: none; stroke-width: 1; stroke-dasharray: none; stroke-linecap: butt; stroke-dashoffset: 0; stroke-linejoin: miter; stroke-miterlimit: 4; fill: rgb(255,153,204); fill-rule: evenodd; opacity: 1;" vector-effect="non-scaling-stroke"  transform=" translate(-8774.79, -3450.25)" d="M 8812.73 3686.73 C 8870.789999999999 3634.03 9011.32 3474.62 9042.49 3361.7 C 9068.57 3267.27 8996.3 3200.0299999999997 8910.38 3254.7 C 8895.929999999998 3263.89 8886.31 3274.74 8873.98 3286 C 8851.64 3306.39 8857.779999999999 3298.32 8841.93 3321.7 C 8823.880000000001 3348.33 8804.93 3384.0099999999998 8785.130000000001 3408.6699999999996 C 8776.210000000001 3401.1699999999996 8784.050000000001 3415.2499999999995 8769.210000000001 3390.5399999999995 C 8764.1 3382.0399999999995 8760.050000000001 3370.3499999999995 8755.7 3361.7699999999995 C 8579.710000000001 3014.1199999999994 8315.28 3347.7499999999995 8698.070000000002 3639.6799999999994 C 8730.930000000002 3664.7399999999993 8758.440000000002 3691.0999999999995 8812.730000000001 3686.7299999999996 z" stroke-linecap="round" />
</g>
		<g transform="matrix(0.04 0 0 0.04 -65.12 38.91)"  >
<path style="stroke: none; stroke-width: 1; stroke-dasharray: none; stroke-linecap: butt; stroke-dashoffset: 0; stroke-linejoin: miter; stroke-miterlimit: 4; fill: rgb(176,126,72); fill-rule: evenodd; opacity: 1;" vector-effect="non-scaling-stroke"  transform=" translate(-4170.26, -7569.37)" d="M 4161.65 7529.62 C 4144.33 7513.2699999999995 4122.45 7468.5 4105.36 7445.16 C 4090.4199999999996 7424.74 4049.7499999999995 7383.33 4028.3799999999997 7369.58 C 3938.6699999999996 7311.85 3868.3599999999997 7401.2 3907.5699999999997 7499.36 C 3939.18 7578.49 4026.08 7701.73 4085.6299999999997 7761.379999999999 C 4114.0199999999995 7789.8099999999995 4137.21 7821.19 4189.42 7796.279999999999 C 4282.07 7752.089999999999 4436.28 7589.779999999999 4443.78 7455.969999999998 C 4449.44 7354.919999999998 4369.99 7298.869999999998 4283.5599999999995 7356.749999999998 C 4215.599999999999 7402.259999999998 4211.24 7461.589999999998 4161.65 7529.619999999998 z" stroke-linecap="round" />
</g>
</g>
</g>
</svg>